<svg width="207" height="63" viewBox="0 0 207 63" fill="none" xmlns="http://www.w3.org/2000/svg">
<rect width="207" height="63" rx="5" fill="black"/>
<path d="M53.1299 32.2731C53.1419 31.3414 53.3894 30.4278 53.8493 29.6174C54.3092 28.807 54.9667 28.1262 55.7605 27.6381C55.2562 26.9179 54.591 26.3252 53.8176 25.9071C53.0442 25.489 52.1839 25.257 51.3051 25.2295C49.4306 25.0327 47.6133 26.3512 46.658 26.3512C45.6843 26.3512 44.2136 25.249 42.6298 25.2816C41.6054 25.3147 40.6071 25.6126 39.732 26.1463C38.857 26.6799 38.1351 27.4312 37.6367 28.3268C35.4777 32.0646 37.0881 37.5581 39.1562 40.5795C40.1909 42.059 41.4002 43.7116 42.9825 43.653C44.5309 43.5888 45.1092 42.6657 46.9782 42.6657C48.8299 42.6657 49.3725 43.653 50.9869 43.6158C52.6484 43.5888 53.6952 42.1297 54.6936 40.6362C55.437 39.582 56.0091 38.4169 56.3886 37.184C55.4234 36.7757 54.5996 36.0923 54.0201 35.219C53.4406 34.3457 53.131 33.3212 53.1299 32.2731Z" fill="white"/>
<path d="M50.0805 23.2423C50.9864 22.1548 51.4327 20.757 51.3246 19.3457C49.9406 19.4911 48.6621 20.1525 47.744 21.1983C47.295 21.7092 46.9512 22.3036 46.7322 22.9475C46.5131 23.5913 46.4231 24.272 46.4672 24.9507C47.1595 24.9578 47.8444 24.8078 48.4702 24.5119C49.0961 24.2159 49.6467 23.7819 50.0805 23.2423Z" fill="white"/>
<path d="M75.2685 29.692C75.0126 29.2227 74.6606 28.8653 74.2126 28.62C73.7646 28.3747 73.2419 28.252 72.6446 28.252C71.9832 28.252 71.3966 28.4013 70.8846 28.7C70.3726 28.9987 69.9725 29.4253 69.6846 29.98C69.3965 30.5347 69.2525 31.1747 69.2525 31.9C69.2525 32.6467 69.3965 33.2973 69.6846 33.852C69.9832 34.4067 70.3939 34.8333 70.9166 35.132C71.4392 35.4307 72.0472 35.58 72.7406 35.58C73.5939 35.58 74.2926 35.356 74.8365 34.908C75.3806 34.4493 75.7379 33.8147 75.9086 33.004H72.0686V31.292H78.1166V33.244C77.9672 34.0227 77.6472 34.7427 77.1566 35.404C76.6659 36.0653 76.0312 36.5987 75.2526 37.004C74.4846 37.3987 73.6206 37.596 72.6606 37.596C71.5832 37.596 70.6072 37.356 69.7325 36.876C68.8685 36.3853 68.1859 35.708 67.6845 34.844C67.1939 33.98 66.9485 32.9987 66.9485 31.9C66.9485 30.8013 67.1939 29.82 67.6845 28.956C68.1859 28.0813 68.8685 27.404 69.7325 26.924C70.6072 26.4333 71.5779 26.188 72.6446 26.188C73.9032 26.188 74.9965 26.4973 75.9246 27.116C76.8526 27.724 77.4926 28.5827 77.8446 29.692H75.2685ZM81.7738 28.14V30.94H85.5338V32.716H81.7738V35.676H86.0138V37.5H79.5338V26.316H86.0138V28.14H81.7738ZM95.4094 26.332V28.14H92.4334V37.5H90.1934V28.14H87.2174V26.332H95.4094ZM102.616 26.332V37.5H100.376V26.332H102.616ZM112.189 26.332V28.14H109.213V37.5H106.973V28.14H103.997V26.332H112.189ZM122.34 37.612C121.295 37.612 120.335 37.3667 119.46 36.876C118.586 36.3853 117.892 35.708 117.38 34.844C116.868 33.9693 116.612 32.9827 116.612 31.884C116.612 30.796 116.868 29.82 117.38 28.956C117.892 28.0813 118.586 27.3987 119.46 26.908C120.335 26.4173 121.295 26.172 122.34 26.172C123.396 26.172 124.356 26.4173 125.22 26.908C126.095 27.3987 126.783 28.0813 127.284 28.956C127.796 29.82 128.052 30.796 128.052 31.884C128.052 32.9827 127.796 33.9693 127.284 34.844C126.783 35.708 126.095 36.3853 125.22 36.876C124.346 37.3667 123.386 37.612 122.34 37.612ZM122.34 35.612C123.012 35.612 123.604 35.4627 124.116 35.164C124.628 34.8547 125.028 34.4173 125.316 33.852C125.604 33.2867 125.748 32.6307 125.748 31.884C125.748 31.1373 125.604 30.4867 125.316 29.932C125.028 29.3667 124.628 28.9347 124.116 28.636C123.604 28.3373 123.012 28.188 122.34 28.188C121.668 28.188 121.071 28.3373 120.548 28.636C120.036 28.9347 119.636 29.3667 119.348 29.932C119.06 30.4867 118.916 31.1373 118.916 31.884C118.916 32.6307 119.06 33.2867 119.348 33.852C119.636 34.4173 120.036 34.8547 120.548 35.164C121.071 35.4627 121.668 35.612 122.34 35.612ZM139.031 37.5H136.791L131.719 29.836V37.5H129.479V26.316H131.719L136.791 33.996V26.316H139.031V37.5ZM146.817 26.332V37.5H144.577V26.332H146.817ZM153.974 37.612C152.929 37.612 151.969 37.3667 151.094 36.876C150.219 36.3853 149.526 35.708 149.014 34.844C148.502 33.9693 148.246 32.9827 148.246 31.884C148.246 30.796 148.502 29.82 149.014 28.956C149.526 28.0813 150.219 27.3987 151.094 26.908C151.969 26.4173 152.929 26.172 153.974 26.172C155.03 26.172 155.99 26.4173 156.854 26.908C157.729 27.3987 158.417 28.0813 158.918 28.956C159.43 29.82 159.686 30.796 159.686 31.884C159.686 32.9827 159.43 33.9693 158.918 34.844C158.417 35.708 157.729 36.3853 156.854 36.876C155.979 37.3667 155.019 37.612 153.974 37.612ZM153.974 35.612C154.646 35.612 155.238 35.4627 155.75 35.164C156.262 34.8547 156.662 34.4173 156.95 33.852C157.238 33.2867 157.382 32.6307 157.382 31.884C157.382 31.1373 157.238 30.4867 156.95 29.932C156.662 29.3667 156.262 28.9347 155.75 28.636C155.238 28.3373 154.646 28.188 153.974 28.188C153.302 28.188 152.705 28.3373 152.182 28.636C151.67 28.9347 151.27 29.3667 150.982 29.932C150.694 30.4867 150.55 31.1373 150.55 31.884C150.55 32.6307 150.694 33.2867 150.982 33.852C151.27 34.4173 151.67 34.8547 152.182 35.164C152.705 35.4627 153.302 35.612 153.974 35.612ZM164.969 37.612C164.19 37.612 163.486 37.4787 162.857 37.212C162.238 36.9453 161.747 36.5613 161.385 36.06C161.022 35.5587 160.835 34.9667 160.825 34.284H163.225C163.257 34.7427 163.417 35.1053 163.705 35.372C164.003 35.6387 164.409 35.772 164.921 35.772C165.443 35.772 165.854 35.6493 166.153 35.404C166.451 35.148 166.601 34.8173 166.601 34.412C166.601 34.0813 166.499 33.8093 166.297 33.596C166.094 33.3827 165.838 33.2173 165.529 33.1C165.23 32.972 164.814 32.8333 164.281 32.684C163.555 32.4707 162.963 32.2627 162.505 32.06C162.057 31.8467 161.667 31.532 161.337 31.116C161.017 30.6893 160.857 30.124 160.857 29.42C160.857 28.7587 161.022 28.1827 161.353 27.692C161.683 27.2013 162.147 26.828 162.745 26.572C163.342 26.3053 164.025 26.172 164.793 26.172C165.945 26.172 166.878 26.4547 167.593 27.02C168.318 27.5747 168.718 28.3533 168.793 29.356H166.329C166.307 28.972 166.142 28.6573 165.833 28.412C165.534 28.156 165.134 28.028 164.633 28.028C164.195 28.028 163.843 28.14 163.577 28.364C163.321 28.588 163.193 28.9133 163.193 29.34C163.193 29.6387 163.289 29.8893 163.481 30.092C163.683 30.284 163.929 30.444 164.217 30.572C164.515 30.6893 164.931 30.828 165.465 30.988C166.19 31.2013 166.782 31.4147 167.241 31.628C167.699 31.8413 168.094 32.1613 168.425 32.588C168.755 33.0147 168.921 33.5747 168.921 34.268C168.921 34.8653 168.766 35.42 168.457 35.932C168.147 36.444 167.694 36.8547 167.097 37.164C166.499 37.4627 165.79 37.612 164.969 37.612Z" fill="white"/>
</svg>
