<svg width="22" height="22" viewBox="0 0 22 22" fill="none" xmlns="http://www.w3.org/2000/svg">
<path d="M21.0577 10.5289C21.0577 4.71354 16.3442 0 10.5289 0C4.71354 0 0 4.71354 0 10.5289C0 15.7843 3.85024 20.1401 8.88375 20.9295V13.5716H6.21079V10.5274H8.88375V8.20757C8.88375 5.56931 10.4549 4.11133 12.8607 4.11133C14.0123 4.11133 15.2183 4.3166 15.2183 4.3166V6.90806H13.8901C12.5815 6.90806 12.174 7.72007 12.174 8.55169V10.5274H15.0945L14.6281 13.5716H12.1755V20.9295C17.209 20.1401 21.0593 15.7843 21.0593 10.5289H21.0577Z" fill="#161616"/>
<path d="M14.6268 13.5731L15.0932 10.5288H12.1727V8.55315C12.1727 7.72002 12.5802 6.90952 13.8888 6.90952H15.217V4.31806C15.217 4.31806 14.0125 4.11279 12.8594 4.11279C10.4536 4.11279 8.88244 5.57078 8.88244 8.20903V10.5288H6.20947V13.5731H8.88244V20.9309C9.41824 21.0154 9.96761 21.0592 10.5276 21.0592C11.0875 21.0592 11.6369 21.0154 12.1727 20.9309V13.5731H14.6253H14.6268Z" fill="white"/>
</svg>
