<svg width="22" height="22" viewBox="0 0 22 22" fill="none" xmlns="http://www.w3.org/2000/svg">
<path d="M11.0836 21.058C16.8985 21.058 21.6124 16.344 21.6124 10.5291C21.6124 4.71418 16.8985 0.000244141 11.0836 0.000244141C5.26862 0.000244141 0.554688 4.71418 0.554688 10.5291C0.554688 16.344 5.26862 21.058 11.0836 21.058Z" fill="#161616"/>
<path d="M14.3516 6.54614C13.9517 6.54614 13.6272 6.87064 13.6272 7.2706C13.6272 7.67057 13.9517 7.99507 14.3516 7.99507C14.7516 7.99507 15.0761 7.67057 15.0761 7.2706C15.0761 6.87064 14.7516 6.54614 14.3516 6.54614Z" fill="white"/>
<path d="M11.1339 7.47437C9.45703 7.47437 8.09412 8.83877 8.09412 10.5141C8.09412 12.1894 9.45854 13.5538 11.1339 13.5538C12.8092 13.5538 14.1736 12.1894 14.1736 10.5141C14.1736 8.83877 12.8092 7.47437 11.1339 7.47437ZM11.1339 12.4626C10.0592 12.4626 9.18685 11.5887 9.18685 10.5156C9.18685 9.44249 10.0608 8.56861 11.1339 8.56861C12.207 8.56861 13.0808 9.44249 13.0808 10.5156C13.0808 11.5887 12.207 12.4626 11.1339 12.4626Z" fill="white"/>
<path d="M13.5469 16.6869H8.6175C6.5724 16.6869 4.90918 15.0236 4.90918 12.9785V8.04917C4.90918 6.00407 6.5724 4.34082 8.6175 4.34082H13.5469C15.592 4.34082 17.2553 6.00407 17.2553 8.04917V12.9785C17.2553 15.0236 15.592 16.6869 13.5469 16.6869ZM8.6175 5.50298C7.21385 5.50298 6.07133 6.64552 6.07133 8.04917V12.9785C6.07133 14.3822 7.21385 15.5247 8.6175 15.5247H13.5469C14.9505 15.5247 16.0931 14.3822 16.0931 12.9785V8.04917C16.0931 6.64401 14.9505 5.50298 13.5469 5.50298H8.6175Z" fill="white"/>
</svg>
