<svg width="240" height="63" viewBox="0 0 240 63" fill="none" xmlns="http://www.w3.org/2000/svg">
<rect width="240" height="63" rx="5" fill="black"/>
<path d="M37.8181 37.4001L24.6639 44.7734L24.6227 44.7934C24.1561 45.0667 23.6071 45.2201 23.0239 45.2201C21.5623 45.2201 20.334 44.2534 19.9772 42.9467C19.9726 42.9423 19.9703 42.9401 19.9703 42.9401L31.663 30.8867L37.8181 37.4001Z" fill="#EA4335"/>
<path d="M45.1328 31.5267C45.1328 32.6934 44.4603 33.7134 43.4653 34.2334L37.818 37.4L31.3953 31.16L37.7974 25.6267L43.4722 28.8267L43.4859 28.8334C44.4672 29.3534 45.1328 30.3667 45.1328 31.5267Z" fill="#FBBC04"/>
<path d="M32.0609 31.1934L19.9702 42.9401C19.9016 42.6867 19.8673 42.4267 19.8673 42.1534V20.8534C19.8673 20.5801 19.9016 20.3134 19.9702 20.0601L32.0609 31.1934Z" fill="#4285F4"/>
<path d="M19.9703 20.06C20.334 18.7467 21.5623 17.78 23.0239 17.78C23.6209 17.78 24.1767 17.9467 24.657 18.22L37.7975 25.6267L31.7453 31.5L19.9703 20.06Z" fill="#34A853"/>
<path d="M64.0127 29.692C63.7567 29.2227 63.4047 28.8653 62.9567 28.62C62.5087 28.3747 61.986 28.252 61.3887 28.252C60.7274 28.252 60.1407 28.4013 59.6287 28.7C59.1167 28.9987 58.7167 29.4253 58.4287 29.98C58.1407 30.5347 57.9967 31.1747 57.9967 31.9C57.9967 32.6467 58.1407 33.2973 58.4287 33.852C58.7274 34.4067 59.138 34.8333 59.6607 35.132C60.1834 35.4307 60.7914 35.58 61.4847 35.58C62.338 35.58 63.0367 35.356 63.5807 34.908C64.1247 34.4493 64.482 33.8147 64.6527 33.004H60.8127V31.292H66.8607V33.244C66.7114 34.0227 66.3914 34.7427 65.9007 35.404C65.41 36.0653 64.7754 36.5987 63.9967 37.004C63.2287 37.3987 62.3647 37.596 61.4047 37.596C60.3274 37.596 59.3514 37.356 58.4767 36.876C57.6127 36.3853 56.93 35.708 56.4287 34.844C55.938 33.98 55.6927 32.9987 55.6927 31.9C55.6927 30.8013 55.938 29.82 56.4287 28.956C56.93 28.0813 57.6127 27.404 58.4767 26.924C59.3514 26.4333 60.322 26.188 61.3887 26.188C62.6474 26.188 63.7407 26.4973 64.6687 27.116C65.5967 27.724 66.2367 28.5827 66.5887 29.692H64.0127ZM70.5179 28.14V30.94H74.2779V32.716H70.5179V35.676H74.7579V37.5H68.2779V26.316H74.7579V28.14H70.5179ZM84.1536 26.332V28.14H81.1776V37.5H78.9376V28.14H75.9616V26.332H84.1536ZM91.3604 26.332V37.5H89.1204V26.332H91.3604ZM100.934 26.332V28.14H97.9576V37.5H95.7176V28.14H92.7416V26.332H100.934ZM111.084 37.612C110.039 37.612 109.079 37.3667 108.204 36.876C107.33 36.3853 106.636 35.708 106.124 34.844C105.612 33.9693 105.356 32.9827 105.356 31.884C105.356 30.796 105.612 29.82 106.124 28.956C106.636 28.0813 107.33 27.3987 108.204 26.908C109.079 26.4173 110.039 26.172 111.084 26.172C112.14 26.172 113.1 26.4173 113.964 26.908C114.839 27.3987 115.527 28.0813 116.028 28.956C116.54 29.82 116.796 30.796 116.796 31.884C116.796 32.9827 116.54 33.9693 116.028 34.844C115.527 35.708 114.839 36.3853 113.964 36.876C113.09 37.3667 112.13 37.612 111.084 37.612ZM111.084 35.612C111.756 35.612 112.348 35.4627 112.86 35.164C113.372 34.8547 113.772 34.4173 114.06 33.852C114.348 33.2867 114.492 32.6307 114.492 31.884C114.492 31.1373 114.348 30.4867 114.06 29.932C113.772 29.3667 113.372 28.9347 112.86 28.636C112.348 28.3373 111.756 28.188 111.084 28.188C110.412 28.188 109.815 28.3373 109.292 28.636C108.78 28.9347 108.38 29.3667 108.092 29.932C107.804 30.4867 107.66 31.1373 107.66 31.884C107.66 32.6307 107.804 33.2867 108.092 33.852C108.38 34.4173 108.78 34.8547 109.292 35.164C109.815 35.4627 110.412 35.612 111.084 35.612ZM127.775 37.5H125.535L120.463 29.836V37.5H118.223V26.316H120.463L125.535 33.996V26.316H127.775V37.5ZM141.465 29.788C141.465 30.3853 141.321 30.9453 141.033 31.468C140.756 31.9907 140.313 32.412 139.705 32.732C139.108 33.052 138.35 33.212 137.433 33.212H135.561V37.5H133.321V26.332H137.433C138.297 26.332 139.033 26.4813 139.641 26.78C140.249 27.0787 140.702 27.4893 141.001 28.012C141.31 28.5347 141.465 29.1267 141.465 29.788ZM137.337 31.404C137.956 31.404 138.414 31.2653 138.713 30.988C139.012 30.7 139.161 30.3 139.161 29.788C139.161 28.7 138.553 28.156 137.337 28.156H135.561V31.404H137.337ZM145.055 35.724H148.735V37.5H142.815V26.332H145.055V35.724ZM156.767 35.372H152.319L151.583 37.5H149.231L153.247 26.316H155.855L159.871 37.5H157.503L156.767 35.372ZM156.159 33.58L154.543 28.908L152.927 33.58H156.159ZM170.012 26.332L166.236 33.612V37.5H163.996V33.612L160.204 26.332H162.732L165.132 31.436L167.516 26.332H170.012ZM174.92 37.612C174.142 37.612 173.438 37.4787 172.808 37.212C172.19 36.9453 171.699 36.5613 171.336 36.06C170.974 35.5587 170.787 34.9667 170.776 34.284H173.176C173.208 34.7427 173.368 35.1053 173.656 35.372C173.955 35.6387 174.36 35.772 174.872 35.772C175.395 35.772 175.806 35.6493 176.104 35.404C176.403 35.148 176.552 34.8173 176.552 34.412C176.552 34.0813 176.451 33.8093 176.248 33.596C176.046 33.3827 175.79 33.2173 175.48 33.1C175.182 32.972 174.766 32.8333 174.232 32.684C173.507 32.4707 172.915 32.2627 172.456 32.06C172.008 31.8467 171.619 31.532 171.288 31.116C170.968 30.6893 170.808 30.124 170.808 29.42C170.808 28.7587 170.974 28.1827 171.304 27.692C171.635 27.2013 172.099 26.828 172.696 26.572C173.294 26.3053 173.976 26.172 174.744 26.172C175.896 26.172 176.83 26.4547 177.544 27.02C178.27 27.5747 178.67 28.3533 178.744 29.356H176.28C176.259 28.972 176.094 28.6573 175.784 28.412C175.486 28.156 175.086 28.028 174.584 28.028C174.147 28.028 173.795 28.14 173.528 28.364C173.272 28.588 173.144 28.9133 173.144 29.34C173.144 29.6387 173.24 29.8893 173.432 30.092C173.635 30.284 173.88 30.444 174.168 30.572C174.467 30.6893 174.883 30.828 175.416 30.988C176.142 31.2013 176.734 31.4147 177.192 31.628C177.651 31.8413 178.046 32.1613 178.376 32.588C178.707 33.0147 178.872 33.5747 178.872 34.268C178.872 34.8653 178.718 35.42 178.408 35.932C178.099 36.444 177.646 36.8547 177.048 37.164C176.451 37.4627 175.742 37.612 174.92 37.612ZM188.174 26.332V28.14H185.198V37.5H182.958V28.14H179.982V26.332H188.174ZM194.753 37.612C193.707 37.612 192.747 37.3667 191.873 36.876C190.998 36.3853 190.305 35.708 189.793 34.844C189.281 33.9693 189.025 32.9827 189.025 31.884C189.025 30.796 189.281 29.82 189.793 28.956C190.305 28.0813 190.998 27.3987 191.873 26.908C192.747 26.4173 193.707 26.172 194.753 26.172C195.809 26.172 196.769 26.4173 197.633 26.908C198.507 27.3987 199.195 28.0813 199.697 28.956C200.209 29.82 200.465 30.796 200.465 31.884C200.465 32.9827 200.209 33.9693 199.697 34.844C199.195 35.708 198.507 36.3853 197.633 36.876C196.758 37.3667 195.798 37.612 194.753 37.612ZM194.753 35.612C195.425 35.612 196.017 35.4627 196.529 35.164C197.041 34.8547 197.441 34.4173 197.729 33.852C198.017 33.2867 198.161 32.6307 198.161 31.884C198.161 31.1373 198.017 30.4867 197.729 29.932C197.441 29.3667 197.041 28.9347 196.529 28.636C196.017 28.3373 195.425 28.188 194.753 28.188C194.081 28.188 193.483 28.3373 192.961 28.636C192.449 28.9347 192.049 29.3667 191.761 29.932C191.473 30.4867 191.329 31.1373 191.329 31.884C191.329 32.6307 191.473 33.2867 191.761 33.852C192.049 34.4173 192.449 34.8547 192.961 35.164C193.483 35.4627 194.081 35.612 194.753 35.612ZM207.651 37.5L205.187 33.148H204.131V37.5H201.891V26.332H206.083C206.947 26.332 207.683 26.4867 208.291 26.796C208.899 27.0947 209.352 27.5053 209.651 28.028C209.96 28.54 210.115 29.116 210.115 29.756C210.115 30.492 209.902 31.1587 209.475 31.756C209.048 32.3427 208.414 32.748 207.571 32.972L210.243 37.5H207.651ZM204.131 31.468H206.003C206.611 31.468 207.064 31.324 207.363 31.036C207.662 30.7373 207.811 30.3267 207.811 29.804C207.811 29.292 207.662 28.8973 207.363 28.62C207.064 28.332 206.611 28.188 206.003 28.188H204.131V31.468ZM214.141 28.14V30.94H217.901V32.716H214.141V35.676H218.381V37.5H211.901V26.316H218.381V28.14H214.141Z" fill="white"/>
</svg>
