<svg width="22" height="22" viewBox="0 0 22 22" fill="none" xmlns="http://www.w3.org/2000/svg">
<path d="M10.6381 21.058C16.4531 21.058 21.167 16.344 21.167 10.5291C21.167 4.71418 16.4531 0.000244141 10.6381 0.000244141C4.82319 0.000244141 0.109253 4.71418 0.109253 10.5291C0.109253 16.344 4.82319 21.058 10.6381 21.058Z" fill="#161616"/>
<path d="M16.455 6.922C16.0898 7.08651 15.6868 7.18763 15.2944 7.25253C15.4815 7.22084 15.7547 6.88275 15.8649 6.74692C16.0324 6.53863 16.1713 6.30016 16.2498 6.04358C16.2603 6.02396 16.2679 5.99831 16.2467 5.98321C16.2211 5.97265 16.2045 5.97868 16.1849 5.98774C15.7457 6.22319 15.2914 6.39374 14.8084 6.51448C14.7677 6.52505 14.739 6.51449 14.7133 6.48883C14.6725 6.44355 14.6348 6.40129 14.5925 6.36506C14.3888 6.1915 14.1715 6.05716 13.9254 5.95604C13.6025 5.82473 13.2508 5.76889 12.9021 5.79153C12.5641 5.81417 12.232 5.90925 11.9317 6.06622C11.6313 6.22319 11.3627 6.44204 11.1484 6.70616C10.928 6.97935 10.7635 7.30083 10.6805 7.64193C10.6005 7.97096 10.6065 8.29696 10.6563 8.63052C10.6639 8.68636 10.6593 8.69391 10.608 8.68637C8.71686 8.40564 7.14868 7.72796 5.87634 6.27752C5.8205 6.21413 5.79184 6.21413 5.74656 6.28205C5.18963 7.11669 5.45979 8.45846 6.15558 9.11651C6.24765 9.20405 6.34423 9.29159 6.44686 9.3731C6.40913 9.38064 5.94577 9.33083 5.53373 9.11651C5.47789 9.0818 5.45074 9.10142 5.44622 9.16481C5.44169 9.25537 5.44921 9.33839 5.46129 9.43649C5.56845 10.2832 6.15408 11.065 6.95703 11.3699C7.05211 11.4107 7.15776 11.4454 7.2604 11.462C7.07777 11.5027 6.88908 11.5314 6.36535 11.4891C6.30045 11.4771 6.27481 11.5088 6.30047 11.5721C6.69439 12.6468 7.54563 12.9652 8.18256 13.1479C8.26708 13.1629 8.3531 13.1629 8.43913 13.1826C8.4346 13.1901 8.42859 13.1901 8.42406 13.1977C8.21276 13.5191 7.48075 13.7591 7.13964 13.8784C6.51932 14.0957 5.84317 14.1923 5.18813 14.1274C5.08399 14.1123 5.06135 14.1138 5.03267 14.1274C5.00399 14.1455 5.02964 14.1697 5.06285 14.1968C5.19567 14.2844 5.33149 14.3628 5.46884 14.4383C5.88541 14.6587 6.32011 14.8353 6.77289 14.9605C9.11684 15.608 11.7581 15.1326 13.5179 13.3833C14.9005 12.0098 15.3849 10.1157 15.3849 8.21999C15.3849 8.14603 15.4725 8.10529 15.5253 8.06604C15.8845 7.79588 16.1743 7.47289 16.4429 7.11217C16.5033 7.03066 16.5033 6.95822 16.5033 6.92954V6.91897C16.5033 6.88879 16.5033 6.89784 16.4565 6.91897L16.455 6.922Z" fill="white"/>
</svg>
