<svg width="55" height="55" viewBox="0 0 55 55" fill="none" xmlns="http://www.w3.org/2000/svg">
<path fill-rule="evenodd" clip-rule="evenodd" d="M9.50017 18.7158C9.38455 17.5902 10.2033 16.584 11.3289 16.4684L41.463 13.3732C42.5887 13.2575 43.5948 14.0763 43.7104 15.2019L43.8076 16.1481L9.59737 19.6621L9.50017 18.7158ZM9.80172 21.6516L11.5637 38.8052C11.6793 39.9309 12.6854 40.7496 13.8111 40.634L43.9452 37.5387C45.0709 37.4231 45.8895 36.4169 45.7739 35.2913L44.012 18.1377L9.80172 21.6516ZM11.0224 13.4841C8.24851 13.769 6.23096 16.2486 6.51588 19.0224L8.57938 39.1118C8.86429 41.8856 11.3438 43.9032 14.1176 43.6183L44.2517 40.523C47.0256 40.2381 49.0431 37.7586 48.7582 34.9848L46.6947 14.8953C46.4098 12.1216 43.9303 10.104 41.1565 10.3889L11.0224 13.4841ZM24.7211 23.1771L18.3385 23.858L23.6516 29.2721L24.5529 27.8443L21.96 25.202L24.1165 24.9719L26.2162 27.0864L19.7723 37.2969L26.1549 36.616L27.4398 34.5823L26.2211 33.3409L25.1856 34.9921L23.0291 35.2221L28.3335 26.8605L24.7211 23.1771ZM36.8242 35.4779L30.4416 36.1589L26.8292 32.4755L32.1335 24.1138L29.9771 24.3439L28.9415 25.995L27.7228 24.7537L29.0077 22.72L35.3903 22.039L28.9465 32.2496L31.0461 34.364L33.2026 34.134L30.6097 31.4917L31.5111 30.0639L36.8242 35.4779Z" fill="#275CB1"/>
</svg>
