<svg width="43" height="34" viewBox="0 0 43 34" fill="none" xmlns="http://www.w3.org/2000/svg">
<path fill-rule="evenodd" clip-rule="evenodd" d="M3.50017 8.71582C3.38455 7.5902 4.20325 6.58404 5.32889 6.46842L35.463 3.37317C36.5887 3.25755 37.5948 4.07626 37.7104 5.20188L37.8076 6.14813L3.59737 9.66206L3.50017 8.71582ZM3.80172 11.6516L5.56368 28.8052C5.6793 29.9309 6.68543 30.7496 7.81108 30.634L37.9452 27.5387C39.0709 27.4231 39.8895 26.4169 39.7739 25.2913L38.012 8.13766L3.80172 11.6516ZM5.02236 3.48412C2.24851 3.76904 0.230964 6.24858 0.515876 9.02236L2.57938 29.1118C2.86429 31.8856 5.34376 33.9032 8.11761 33.6183L38.2517 30.523C41.0256 30.2381 43.0431 27.7586 42.7582 24.9848L40.6947 4.89535C40.4098 2.12157 37.9303 0.103952 35.1565 0.38887L5.02236 3.48412ZM18.7211 13.1771L12.3385 13.858L17.6516 19.2721L18.5529 17.8443L15.96 15.202L18.1165 14.9719L20.2162 17.0864L13.7723 27.2969L20.1549 26.616L21.4398 24.5823L20.2211 23.3409L19.1856 24.9921L17.0291 25.2221L22.3335 16.8605L18.7211 13.1771ZM30.8242 25.4779L24.4416 26.1589L20.8292 22.4755L26.1335 14.1138L23.9771 14.3439L22.9415 15.995L21.7228 14.7537L23.0077 12.72L29.3903 12.039L22.9465 22.2496L25.0461 24.364L27.2026 24.134L24.6097 21.4917L25.5111 20.0639L30.8242 25.4779Z" fill="#275CB1"/>
</svg>
