<svg width="67" height="55" viewBox="0 0 67 55" fill="none" xmlns="http://www.w3.org/2000/svg">
<path fill-rule="evenodd" clip-rule="evenodd" d="M35.3966 36.1667H64.5633C65.1158 36.1667 65.6458 36.3862 66.0365 36.7769C66.4272 37.1676 66.6466 37.6975 66.6466 38.25C66.6466 38.8025 66.4272 39.3324 66.0365 39.7231C65.6458 40.1138 65.1158 40.3333 64.5633 40.3333H64.1883C64.5309 41.2774 64.641 42.29 64.5093 43.2856C64.3775 44.2812 64.0078 45.2304 63.4314 46.0528C62.855 46.8752 62.0889 47.5466 61.198 48.0101C60.3071 48.4737 59.3176 48.7157 58.3133 48.7157C57.309 48.7157 56.3195 48.4737 55.4286 48.0101C54.5377 47.5466 53.7716 46.8752 53.1952 46.0528C52.6188 45.2304 52.2491 44.2812 52.1173 43.2856C51.9856 42.29 52.0957 41.2774 52.4383 40.3333H47.5216C47.8643 41.2774 47.9744 42.29 47.8426 43.2856C47.7109 44.2812 47.3411 45.2304 46.7647 46.0528C46.1883 46.8752 45.4222 47.5466 44.5313 48.0101C43.6404 48.4737 42.6509 48.7157 41.6466 48.7157C40.6424 48.7157 39.6529 48.4737 38.762 48.0101C37.8711 47.5466 37.105 46.8752 36.5286 46.0528C35.9522 45.2304 35.5824 44.2812 35.4507 43.2856C35.3189 42.29 35.429 41.2774 35.7716 40.3333H35.3966C33.739 40.4079 32.1197 39.821 30.8949 38.7016C29.67 37.5823 28.94 36.0222 28.8654 34.3646C28.7908 32.707 29.3777 31.0876 30.4971 29.8628C31.6165 28.6379 33.1765 27.9079 34.8341 27.8333L31.23 13.75L31.105 12.75C30.9909 12.2878 30.722 11.8785 30.3429 11.5904C29.9639 11.3024 29.4976 11.1528 29.0216 11.1667H27.0633C26.5108 11.1667 25.9809 10.9472 25.5902 10.5565C25.1995 10.1658 24.98 9.63587 24.98 9.08333C24.98 8.5308 25.1995 8.00089 25.5902 7.61019C25.9809 7.21949 26.5108 7 27.0633 7H29.0216C30.3111 7.00362 31.5679 7.406 32.6197 8.15196C33.6715 8.89791 34.4668 9.95094 34.8966 11.1667H64.5633C64.8902 11.1552 65.2152 11.221 65.512 11.3585C65.8088 11.496 66.069 11.7015 66.2716 11.9583C66.4664 12.2087 66.6015 12.5003 66.6665 12.8108C66.7315 13.1213 66.7247 13.4425 66.6466 13.75L63.2091 27.2708C62.8702 28.622 62.0895 29.8212 60.9912 30.678C59.8928 31.5348 58.5397 32.0001 57.1466 32H35.3966C34.8441 32 34.3142 32.2195 33.9235 32.6102C33.5328 33.0009 33.3133 33.5308 33.3133 34.0833C33.3133 34.6359 33.5328 35.1658 33.9235 35.5565C34.3142 35.9472 34.8441 36.1667 35.3966 36.1667ZM59.1675 26.25L61.8966 15.3333H35.98L39.105 27.8333H57.0841C57.5601 27.8472 58.0263 27.6976 58.4054 27.4096C58.7845 27.1215 59.0534 26.7122 59.1675 26.25ZM40.4892 44.1489C40.8318 44.3778 41.2346 44.5 41.6466 44.5C42.1992 44.5 42.7291 44.2805 43.1198 43.8898C43.5105 43.4991 43.73 42.9692 43.73 42.4167C43.73 42.0046 43.6078 41.6018 43.3789 41.2592C43.15 40.9166 42.8246 40.6496 42.4439 40.4919C42.0632 40.3342 41.6443 40.293 41.2402 40.3734C40.8361 40.4538 40.4649 40.6522 40.1735 40.9435C39.8821 41.2349 39.6837 41.6061 39.6033 42.0102C39.523 42.4143 39.5642 42.8332 39.7219 43.2139C39.8796 43.5946 40.1466 43.92 40.4892 44.1489ZM57.1559 44.1489C57.4985 44.3778 57.9013 44.5 58.3133 44.5C58.8658 44.5 59.3958 44.2805 59.7865 43.8898C60.1772 43.4991 60.3966 42.9692 60.3966 42.4167C60.3966 42.0046 60.2745 41.6018 60.0455 41.2592C59.8166 40.9166 59.4912 40.6496 59.1106 40.4919C58.7299 40.3342 58.311 40.293 57.9069 40.3734C57.5027 40.4538 57.1315 40.6522 56.8402 40.9435C56.5488 41.2349 56.3504 41.6061 56.27 42.0102C56.1896 42.4143 56.2309 42.8332 56.3886 43.2139C56.5462 43.5946 56.8133 43.92 57.1559 44.1489ZM9.81348 24.0196C8.81201 24.0196 8 24.8316 8 25.8333C8 26.835 8.81201 27.647 9.81348 27.647H25.8135C26.8149 27.647 27.627 26.835 27.627 25.8333C27.627 24.8316 26.8149 24.0196 25.8135 24.0196H9.81348ZM1.81348 32.0196C0.812012 32.0196 0 32.8316 0 33.8333C0 34.835 0.812012 35.647 1.81348 35.647H23.2134C24.2153 35.647 25.0273 34.835 25.0273 33.8333C25.0273 32.8316 24.2153 32.0196 23.2134 32.0196H1.81348ZM13.3999 41.8333C13.3999 40.8316 14.2119 40.0196 15.2134 40.0196H24.8135C25.8149 40.0196 26.627 40.8316 26.627 41.8333C26.627 42.835 25.8149 43.647 24.8135 43.647H15.2134C14.2119 43.647 13.3999 42.835 13.3999 41.8333Z" fill="#275CB1"/>
</svg>
