<svg width="67" height="42" viewBox="0 0 67 42" fill="none" xmlns="http://www.w3.org/2000/svg">
<path fill-rule="evenodd" clip-rule="evenodd" d="M35.3966 29.1667H64.5633C65.1158 29.1667 65.6458 29.3862 66.0365 29.7769C66.4272 30.1676 66.6466 30.6975 66.6466 31.25C66.6466 31.8025 66.4272 32.3324 66.0365 32.7231C65.6458 33.1138 65.1158 33.3333 64.5633 33.3333H64.1883C64.5309 34.2774 64.641 35.29 64.5093 36.2856C64.3775 37.2812 64.0078 38.2304 63.4314 39.0528C62.855 39.8752 62.0889 40.5466 61.198 41.0101C60.3071 41.4737 59.3176 41.7157 58.3133 41.7157C57.309 41.7157 56.3195 41.4737 55.4286 41.0101C54.5377 40.5466 53.7716 39.8752 53.1952 39.0528C52.6188 38.2304 52.2491 37.2812 52.1173 36.2856C51.9856 35.29 52.0957 34.2774 52.4383 33.3333H47.5216C47.8643 34.2774 47.9744 35.29 47.8426 36.2856C47.7109 37.2812 47.3411 38.2304 46.7647 39.0528C46.1883 39.8752 45.4222 40.5466 44.5313 41.0101C43.6404 41.4737 42.6509 41.7157 41.6466 41.7157C40.6424 41.7157 39.6529 41.4737 38.762 41.0101C37.8711 40.5466 37.105 39.8752 36.5286 39.0528C35.9522 38.2304 35.5824 37.2812 35.4507 36.2856C35.3189 35.29 35.429 34.2774 35.7716 33.3333H35.3966C33.739 33.4079 32.1197 32.821 30.8949 31.7016C29.67 30.5823 28.94 29.0222 28.8654 27.3646C28.7908 25.707 29.3777 24.0876 30.4971 22.8628C31.6165 21.6379 33.1765 20.9079 34.8341 20.8333L31.23 6.75L31.105 5.75C30.9909 5.28776 30.722 4.87853 30.3429 4.59044C29.9639 4.30236 29.4976 4.1528 29.0216 4.16667H27.0633C26.5108 4.16667 25.9809 3.94717 25.5902 3.55647C25.1995 3.16577 24.98 2.63587 24.98 2.08333C24.98 1.5308 25.1995 1.00089 25.5902 0.610194C25.9809 0.219493 26.5108 0 27.0633 0H29.0216C30.3111 0.00362398 31.5679 0.405997 32.6197 1.15196C33.6715 1.89791 34.4668 2.95094 34.8966 4.16667H64.5633C64.8902 4.15524 65.2152 4.22096 65.512 4.3585C65.8088 4.49604 66.069 4.70153 66.2716 4.95833C66.4664 5.20872 66.6015 5.50027 66.6665 5.81077C66.7315 6.12127 66.7247 6.44252 66.6466 6.75L63.2091 20.2708C62.8702 21.622 62.0895 22.8212 60.9912 23.678C59.8928 24.5348 58.5397 25.0001 57.1466 25H35.3966C34.8441 25 34.3142 25.2195 33.9235 25.6102C33.5328 26.0009 33.3133 26.5308 33.3133 27.0833C33.3133 27.6359 33.5328 28.1658 33.9235 28.5565C34.3142 28.9472 34.8441 29.1667 35.3966 29.1667ZM59.1675 19.25L61.8966 8.33333H35.98L39.105 20.8333H57.0841C57.5601 20.8472 58.0263 20.6976 58.4054 20.4096C58.7845 20.1215 59.0534 19.7122 59.1675 19.25ZM40.4892 37.1489C40.8318 37.3778 41.2346 37.5 41.6466 37.5C42.1992 37.5 42.7291 37.2805 43.1198 36.8898C43.5105 36.4991 43.73 35.9692 43.73 35.4167C43.73 35.0046 43.6078 34.6018 43.3789 34.2592C43.15 33.9166 42.8246 33.6496 42.4439 33.4919C42.0632 33.3342 41.6443 33.293 41.2402 33.3734C40.8361 33.4538 40.4649 33.6522 40.1735 33.9435C39.8821 34.2349 39.6837 34.6061 39.6033 35.0102C39.523 35.4143 39.5642 35.8332 39.7219 36.2139C39.8796 36.5946 40.1466 36.92 40.4892 37.1489ZM57.1559 37.1489C57.4985 37.3778 57.9013 37.5 58.3133 37.5C58.8658 37.5 59.3958 37.2805 59.7865 36.8898C60.1772 36.4991 60.3966 35.9692 60.3966 35.4167C60.3966 35.0046 60.2745 34.6018 60.0455 34.2592C59.8166 33.9166 59.4912 33.6496 59.1106 33.4919C58.7299 33.3342 58.311 33.293 57.9069 33.3734C57.5027 33.4538 57.1315 33.6522 56.8402 33.9435C56.5488 34.2349 56.3504 34.6061 56.27 35.0102C56.1896 35.4143 56.2309 35.8332 56.3886 36.2139C56.5462 36.5946 56.8133 36.92 57.1559 37.1489ZM9.81348 17.0196C8.81201 17.0196 8 17.8316 8 18.8333C8 19.835 8.81201 20.647 9.81348 20.647H25.8135C26.8149 20.647 27.627 19.835 27.627 18.8333C27.627 17.8316 26.8149 17.0196 25.8135 17.0196H9.81348ZM1.81348 25.0196C0.812012 25.0196 0 25.8316 0 26.8333C0 27.835 0.812012 28.647 1.81348 28.647H23.2134C24.2153 28.647 25.0273 27.835 25.0273 26.8333C25.0273 25.8316 24.2153 25.0196 23.2134 25.0196H1.81348ZM13.3999 34.8333C13.3999 33.8316 14.2119 33.0196 15.2134 33.0196H24.8135C25.8149 33.0196 26.627 33.8316 26.627 34.8333C26.627 35.835 25.8149 36.647 24.8135 36.647H15.2134C14.2119 36.647 13.3999 35.835 13.3999 34.8333Z" fill="#275CB1"/>
</svg>
