<svg width="55" height="55" viewBox="0 0 55 55" fill="none" xmlns="http://www.w3.org/2000/svg">
<path fill-rule="evenodd" clip-rule="evenodd" d="M14.6585 10C11.8701 10 9.60976 12.2604 9.60976 15.0488V15.6098H9.04878C6.26034 15.6098 4 17.8702 4 20.6585V40.8537C4 43.642 6.26034 45.9024 9.04878 45.9024H39.3415C42.1299 45.9024 44.3902 43.642 44.3902 40.8537V40.2927H44.9512C47.7397 40.2927 50 38.0323 50 35.2439V15.0488C50 12.2604 47.7397 10 44.9512 10H14.6585ZM44.3902 36.9268H44.9512C45.8809 36.9268 46.6341 36.1734 46.6341 35.2439V15.0488C46.6341 14.1193 45.8809 13.3659 44.9512 13.3659H14.6585C13.7289 13.3659 12.9756 14.1193 12.9756 15.0488V15.6098H39.3415C42.1299 15.6098 44.3902 17.8702 44.3902 20.6585V36.9268ZM7.36585 20.6585C7.36585 19.7291 8.11912 18.9756 9.04878 18.9756H15.2195V21.4886C14.7966 21.3152 14.3337 21.2195 13.8483 21.2195C11.5074 21.2195 9.60976 23.1171 9.60976 25.458C9.60976 25.9434 9.70563 26.4064 9.87874 26.8293H7.36585V20.6585ZM17.4634 21.4886V18.9756H39.3415C40.2711 18.9756 41.0244 19.7291 41.0244 20.6585V26.8293H22.8042C22.9773 26.4064 23.0732 25.9434 23.0732 25.458C23.0732 23.1171 21.1755 21.2195 18.8346 21.2195C18.3493 21.2195 17.8863 21.3152 17.4634 21.4886ZM22.8042 29.0732H41.0244V40.8537C41.0244 41.7831 40.2711 42.5366 39.3415 42.5366H17.4634V34.4138C17.8863 34.5873 18.3493 34.6829 18.8346 34.6829C21.1755 34.6829 23.0732 32.7853 23.0732 30.4445C23.0732 29.9591 22.9773 29.496 22.8042 29.0732ZM15.2195 34.4138V42.5366H9.04878C8.11912 42.5366 7.36585 41.7831 7.36585 40.8537V29.0732H9.87874C9.70563 29.496 9.60976 29.9591 9.60976 30.4445C9.60976 32.7853 11.5074 34.6829 13.8483 34.6829C14.3337 34.6829 14.7966 34.5873 15.2195 34.4138ZM15.2195 24.833V26.8293H13.2249C12.4678 26.8293 11.8537 26.2154 11.8537 25.458C11.8537 24.3564 12.7466 23.4634 13.8483 23.4634C14.6048 23.4634 15.2184 24.0764 15.2195 24.833ZM13.2249 29.0732H15.2195V31.0695C15.2184 31.826 14.6048 32.439 13.8483 32.439C12.7466 32.439 11.8537 31.546 11.8537 30.4445C11.8537 29.6871 12.4678 29.0732 13.2249 29.0732ZM18.8346 32.439C18.0775 32.439 17.4634 31.8251 17.4634 31.0677V29.0732H19.4581C20.2152 29.0732 20.8293 29.6871 20.8293 30.4445C20.8293 31.546 19.9363 32.439 18.8346 32.439ZM20.8293 25.458C20.8293 26.2154 20.2152 26.8293 19.4581 26.8293H17.4634V24.8347C17.4634 24.0773 18.0775 23.4634 18.8346 23.4634C19.9363 23.4634 20.8293 24.3564 20.8293 25.458Z" fill="#275CB1"/>
</svg>
