<svg width="46" height="36" viewBox="0 0 46 36" fill="none" xmlns="http://www.w3.org/2000/svg">
<path fill-rule="evenodd" clip-rule="evenodd" d="M10.6585 0C7.87009 0 5.60976 2.26041 5.60976 5.04878V5.60976H5.04878C2.26034 5.60976 0 7.87016 0 10.6585V30.8537C0 33.642 2.26034 35.9024 5.04878 35.9024H35.3415C38.1299 35.9024 40.3902 33.642 40.3902 30.8537V30.2927H40.9512C43.7397 30.2927 46 28.0323 46 25.2439V5.04878C46 2.26041 43.7397 0 40.9512 0H10.6585ZM40.3902 26.9268H40.9512C41.8809 26.9268 42.6341 26.1734 42.6341 25.2439V5.04878C42.6341 4.11925 41.8809 3.36585 40.9512 3.36585H10.6585C9.72887 3.36585 8.97561 4.11925 8.97561 5.04878V5.60976H35.3415C38.1299 5.60976 40.3902 7.87016 40.3902 10.6585V26.9268ZM3.36585 10.6585C3.36585 9.72908 4.11912 8.97561 5.04878 8.97561H11.2195V11.4886C10.7966 11.3152 10.3337 11.2195 9.8483 11.2195C7.50743 11.2195 5.60976 13.1171 5.60976 15.458C5.60976 15.9434 5.70563 16.4064 5.87874 16.8293H3.36585V10.6585ZM13.4634 11.4886V8.97561H35.3415C36.2711 8.97561 37.0244 9.72908 37.0244 10.6585V16.8293H18.8042C18.9773 16.4064 19.0732 15.9434 19.0732 15.458C19.0732 13.1171 17.1755 11.2195 14.8346 11.2195C14.3493 11.2195 13.8863 11.3152 13.4634 11.4886ZM18.8042 19.0732H37.0244V30.8537C37.0244 31.7831 36.2711 32.5366 35.3415 32.5366H13.4634V24.4138C13.8863 24.5873 14.3493 24.6829 14.8346 24.6829C17.1755 24.6829 19.0732 22.7853 19.0732 20.4445C19.0732 19.9591 18.9773 19.496 18.8042 19.0732ZM11.2195 24.4138V32.5366H5.04878C4.11912 32.5366 3.36585 31.7831 3.36585 30.8537V19.0732H5.87874C5.70563 19.496 5.60976 19.9591 5.60976 20.4445C5.60976 22.7853 7.50743 24.6829 9.8483 24.6829C10.3337 24.6829 10.7966 24.5873 11.2195 24.4138ZM11.2195 14.833V16.8293H9.22487C8.46777 16.8293 7.85366 16.2154 7.85366 15.458C7.85366 14.3564 8.74662 13.4634 9.8483 13.4634C10.6048 13.4634 11.2184 14.0764 11.2195 14.833ZM9.22487 19.0732H11.2195V21.0695C11.2184 21.826 10.6048 22.439 9.8483 22.439C8.74662 22.439 7.85366 21.546 7.85366 20.4445C7.85366 19.6871 8.46777 19.0732 9.22487 19.0732ZM14.8346 22.439C14.0775 22.439 13.4634 21.8251 13.4634 21.0677V19.0732H15.4581C16.2152 19.0732 16.8293 19.6871 16.8293 20.4445C16.8293 21.546 15.9363 22.439 14.8346 22.439ZM16.8293 15.458C16.8293 16.2154 16.2152 16.8293 15.4581 16.8293H13.4634V14.8347C13.4634 14.0773 14.0775 13.4634 14.8346 13.4634C15.9363 13.4634 16.8293 14.3564 16.8293 15.458Z" fill="#275CB1"/>
</svg>
