<svg width="55" height="55" viewBox="0 0 55 55" fill="none" xmlns="http://www.w3.org/2000/svg">
<path fill-rule="evenodd" clip-rule="evenodd" d="M12.8292 17.9817C13.5616 11.1141 20.2441 6 28.0002 6C35.7517 6 42.4309 11.1081 43.1698 17.9697C44.8157 18.0909 46.1237 19.6744 46.1237 21.6017V23.3975C46.1237 25.4035 44.7068 27.037 42.9666 27.037H42.8589C41.1187 27.037 39.7017 25.4035 39.7017 23.3975V21.6017C39.7017 20.5257 40.1094 19.5568 40.756 18.8898C40.5394 13.261 35.0833 8.47493 28.0002 8.47493C20.9657 8.47493 15.5361 13.1953 15.2495 18.7737C15.9642 19.4416 16.422 20.4615 16.422 21.6017V23.3975C16.422 25.2112 15.2636 26.7204 13.7554 26.9931C14.0554 27.6485 14.5118 28.2335 15.1085 28.7051C15.4154 28.5948 15.7664 28.6362 16.0407 28.8475L16.4314 29.1484C16.8678 29.4847 16.9476 30.1261 16.6093 30.5776L16.5883 30.6055C16.25 31.057 15.6191 31.1509 15.1827 30.8147L14.792 30.5137C14.5406 30.3201 14.4076 30.0253 14.4045 29.7238C13.4458 28.9849 12.7683 28.016 12.4067 26.933C11.0273 26.5435 10 25.1055 10 23.3975V21.6017C10 19.7233 11.2424 18.1716 12.8292 17.9817ZM38.9644 24.839C38.2938 27.112 36.9274 29.1205 35.0555 30.5852C38.2764 31.8565 41.0888 33.9755 43.1911 36.7153C45.2934 39.455 46.6063 42.712 46.9891 46.1372C47.0428 46.6354 46.8963 47.1345 46.5816 47.5258C46.2669 47.9171 45.8094 48.1688 45.3089 48.226H45.0988C44.6268 48.2289 44.1705 48.0577 43.8178 47.7456C43.4652 47.4335 43.2414 47.0026 43.1895 46.536C42.7702 42.824 40.9904 39.3958 38.1903 36.9063C35.3901 34.4168 31.7658 33.0405 28.0099 33.0405C24.2539 33.0405 20.6296 34.4168 17.8295 36.9063C15.0293 39.3958 13.2496 42.824 12.8303 46.536C12.7746 47.0396 12.52 47.5006 12.1225 47.8176C11.7251 48.1345 11.2173 48.2814 10.7109 48.226C10.2045 48.1706 9.74094 47.9174 9.42225 47.5222C9.26445 47.3264 9.14696 47.1017 9.07648 46.8608C9.00601 46.6199 8.98394 46.3676 9.01152 46.1182C9.39256 42.7027 10.6985 39.454 12.79 36.7185C14.8815 33.983 17.6803 31.8632 20.8879 30.5852C19.0159 29.1205 17.6496 27.112 16.9789 24.839C16.3082 22.5661 16.3666 20.1417 17.1459 17.9033C17.9252 15.6649 19.3866 13.7237 21.3269 12.3497C23.2672 10.9758 25.5898 10.2375 27.9717 10.2375C30.3535 10.2375 32.6762 10.9758 34.6165 12.3497C36.5567 13.7237 38.0182 15.6649 38.7975 17.9033C39.5767 20.1417 39.6351 22.5661 38.9644 24.839ZM23.7285 27.9569C24.9845 28.7915 26.4611 29.237 27.9717 29.237C29.9973 29.237 31.9399 28.4367 33.3722 27.0123C34.8045 25.5878 35.6092 23.6558 35.6092 21.6414C35.6092 20.1391 35.1613 18.6705 34.3221 17.4215C33.4828 16.1724 32.29 15.1988 30.8944 14.6239C29.4989 14.049 27.9632 13.8986 26.4817 14.1917C25.0001 14.4848 23.6393 15.2082 22.5711 16.2704C21.503 17.3327 20.7756 18.6861 20.4809 20.1595C20.1862 21.6329 20.3375 23.1602 20.9155 24.5481C21.4936 25.936 22.4725 27.1223 23.7285 27.9569Z" fill="#275CB1"/>
</svg>
