<svg width="38" height="43" viewBox="0 0 38 43" fill="none" xmlns="http://www.w3.org/2000/svg">
<path fill-rule="evenodd" clip-rule="evenodd" d="M3.82921 11.9817C4.56157 5.1141 11.2441 0 19.0002 0C26.7517 0 33.4309 5.10812 34.1698 11.9697C35.8157 12.0909 37.1237 13.6744 37.1237 15.6017V17.3975C37.1237 19.4035 35.7068 21.037 33.9666 21.037H33.8589C32.1187 21.037 30.7017 19.4035 30.7017 17.3975V15.6017C30.7017 14.5257 31.1094 13.5568 31.756 12.8898C31.5394 7.26096 26.0833 2.47493 19.0002 2.47493C11.9657 2.47493 6.53611 7.19531 6.24953 12.7737C6.96424 13.4416 7.42203 14.4615 7.42203 15.6017V17.3975C7.42203 19.2112 6.26365 20.7204 4.75537 20.9931C5.05537 21.6485 5.51178 22.2335 6.10848 22.7051C6.41544 22.5948 6.76643 22.6362 7.04065 22.8475L7.43135 23.1484C7.86777 23.4847 7.94763 24.1261 7.60927 24.5776L7.58832 24.6055C7.24997 25.057 6.61908 25.1509 6.18266 24.8147L5.79196 24.5137C5.54065 24.3201 5.40758 24.0253 5.40451 23.7238C4.44584 22.9849 3.7683 22.016 3.40669 20.933C2.0273 20.5435 1 19.1055 1 17.3975V15.6017C1 13.7233 2.24241 12.1716 3.82921 11.9817ZM29.9644 18.839C29.2938 21.112 27.9274 23.1205 26.0555 24.5852C29.2764 25.8565 32.0888 27.9755 34.1911 30.7153C36.2934 33.455 37.6063 36.712 37.9891 40.1372C38.0428 40.6354 37.8963 41.1345 37.5816 41.5258C37.2669 41.9171 36.8094 42.1688 36.3089 42.226H36.0988C35.6268 42.2289 35.1705 42.0577 34.8178 41.7456C34.4652 41.4335 34.2414 41.0026 34.1895 40.536C33.7702 36.824 31.9904 33.3958 29.1903 30.9063C26.3901 28.4168 22.7658 27.0405 19.0099 27.0405C15.2539 27.0405 11.6296 28.4168 8.82946 30.9063C6.02929 33.3958 4.24955 36.824 3.83028 40.536C3.77458 41.0396 3.51999 41.5006 3.12252 41.8176C2.72505 42.1345 2.21727 42.2814 1.71087 42.226C1.20447 42.1706 0.740937 41.9174 0.422247 41.5222C0.264448 41.3264 0.146958 41.1017 0.0764846 40.8608C0.00601145 40.6199 -0.0160647 40.3676 0.0115171 40.1182C0.392559 36.7027 1.69845 33.454 3.78998 30.7185C5.88151 27.983 8.68026 25.8632 11.8879 24.5852C10.0159 23.1205 8.64958 21.112 7.97891 18.839C7.30824 16.5661 7.36661 14.1417 8.14589 11.9033C8.92517 9.66487 10.3866 7.72367 12.3269 6.34974C14.2672 4.97581 16.5898 4.23749 18.9717 4.23749C21.3535 4.23749 23.6762 4.97581 25.6165 6.34974C27.5567 7.72367 29.0182 9.66487 29.7975 11.9033C30.5767 14.1417 30.6351 16.5661 29.9644 18.839ZM14.7285 21.9569C15.9845 22.7915 17.4611 23.237 18.9717 23.237C20.9973 23.237 22.9399 22.4367 24.3722 21.0123C25.8045 19.5878 26.6092 17.6558 26.6092 15.6414C26.6092 14.1391 26.1613 12.6705 25.3221 11.4215C24.4828 10.1724 23.29 9.19881 21.8944 8.62392C20.4989 8.04902 18.9632 7.8986 17.4817 8.19168C16.0001 8.48476 14.6393 9.20817 13.5711 10.2704C12.503 11.3327 11.7756 12.6861 11.4809 14.1595C11.1862 15.6329 11.3375 17.1602 11.9155 18.5481C12.4936 19.936 13.4725 21.1223 14.7285 21.9569Z" fill="#275CB1"/>
</svg>
