<svg width="34" height="34" viewBox="0 0 34 34" fill="none" xmlns="http://www.w3.org/2000/svg">
<path d="M4 8H7.63636L10.0727 20.1148C10.1559 20.5313 10.3836 20.9055 10.716 21.1718C11.0483 21.4381 11.4643 21.5796 11.8909 21.5714H20.7273C21.1539 21.5796 21.5698 21.4381 21.9022 21.1718C22.2346 20.9055 22.4623 20.5313 22.5455 20.1148L24 12.5238H8.54545M22.1818 26.0952C22.1818 26.5949 21.7748 27 21.2727 27C20.7707 27 20.3636 26.5949 20.3636 26.0952C20.3636 25.5956 20.7707 25.1905 21.2727 25.1905C21.7748 25.1905 22.1818 25.5956 22.1818 26.0952ZM12.1818 26.0952C12.1818 26.5949 11.7748 27 11.2727 27C10.7707 27 10.3636 26.5949 10.3636 26.0952C10.3636 25.5956 10.7707 25.1905 11.2727 25.1905C11.7748 25.1905 12.1818 25.5956 12.1818 26.0952Z" stroke="#1D1D1D" stroke-width="2" stroke-linecap="round" stroke-linejoin="round"/>
</svg>
