<svg width="48" height="43" viewBox="0 0 48 43" fill="none" xmlns="http://www.w3.org/2000/svg">
<path d="M39.4455 27.7129C40.2331 27.7129 40.8713 28.3546 40.8713 29.1461V30.5792H42.297C43.0846 30.5792 43.7228 31.2209 43.7228 32.0124C43.7228 32.8039 43.0846 33.4456 42.297 33.4456H40.8713V34.8787C40.8713 35.6702 40.2331 36.3119 39.4455 36.3119C38.658 36.3119 38.0198 35.6702 38.0198 34.8787V33.4456H36.5941C35.8065 33.4456 35.1683 32.8039 35.1683 32.0124C35.1683 31.2209 35.8065 30.5792 36.5941 30.5792H38.0198V29.1461C38.0198 28.3546 38.658 27.7129 39.4455 27.7129Z" fill="#275CB1"/>
<path fill-rule="evenodd" clip-rule="evenodd" d="M42.7723 12.5167C42.7825 12.3808 42.7825 12.2442 42.7723 12.1083L38.4951 1.3596C38.328 0.934714 38.0305 0.574384 37.6462 0.330859C37.2614 0.0873341 36.8099 -0.0267307 36.3564 0.00528444H6.41584C5.98747 0.00487623 5.56884 0.133753 5.21426 0.375178C5.03651 0.496183 4.87918 0.642671 4.74598 0.809103C4.61371 0.974718 4.50603 1.16004 4.42713 1.3596L0.149907 12.1083C0.139233 12.2442 0.139233 12.3808 0.149907 12.5167C0.0918936 12.6136 0.0478032 12.7177 0.0181002 12.8264C0.0111386 12.8519 0.0051052 12.8777 0 12.9037C0.0236696 14.3897 0.430229 15.8441 1.17976 17.1251C1.92976 18.406 2.99675 19.4699 4.27723 20.2128V40.8503C4.27723 41.4204 4.50232 41.9672 4.90377 42.3703C5.30476 42.7735 5.8487 43 6.41584 43H36.3564C36.9236 43 37.4675 42.7735 37.8685 42.3703C38.27 41.9672 38.4951 41.4204 38.4951 40.8503V40.5589C38.8069 40.5936 39.1244 40.6113 39.4455 40.6113C44.1702 40.6113 48 36.7615 48 32.0124C48 27.2633 44.1702 23.4135 39.4455 23.4135C39.1244 23.4135 38.8069 23.4312 38.4951 23.4659V20.2988C39.7881 19.5485 40.8629 18.4711 41.6134 17.1738C42.3639 15.8764 42.7635 14.4043 42.7723 12.9037C42.7825 12.8372 42.7876 12.77 42.7871 12.7029C42.7871 12.6406 42.782 12.5784 42.7723 12.5167ZM34.2178 25.2054V21.5026C33 21.4957 31.7975 21.2275 30.6911 20.7159C29.5846 20.2043 28.5998 19.4611 27.802 18.536C26.9991 19.451 26.0119 20.1838 24.9059 20.6857C23.7995 21.1877 22.5998 21.4472 21.3861 21.4472C20.1725 21.4472 18.9728 21.1877 17.8663 20.6857C16.7604 20.1838 15.7732 19.451 14.9703 18.536C14.1725 19.4611 13.1877 20.2043 12.0812 20.7159C10.9748 21.2275 9.77228 21.4957 8.55446 21.5026V38.7005H14.9703V27.9519C14.9703 27.3817 15.1954 26.8349 15.5968 26.4317C15.9978 26.0286 16.5418 25.8021 17.1089 25.8021H25.6634C26.2305 25.8021 26.7744 26.0286 27.1754 26.4317C27.5769 26.8349 27.802 27.3817 27.802 27.9519V38.7005H34.0684C32.1303 37.1241 30.8911 34.7137 30.8911 32.0124C30.8911 29.2423 32.1943 26.778 34.2178 25.2054ZM19.2475 38.7005V30.1016H23.5248V38.7005H19.2475ZM34.2178 17.2032C33.0835 17.2032 31.9957 16.7502 31.1932 15.9439C30.3912 15.1376 29.9406 14.044 29.9406 12.9037C29.9406 12.3336 29.7155 11.7867 29.314 11.3836C28.9131 10.9805 28.3691 10.754 27.802 10.754C27.2348 10.754 26.6909 10.9805 26.2899 11.3836C25.8885 11.7867 25.6634 12.3336 25.6634 12.9037C25.6634 14.044 25.2127 15.1376 24.4107 15.9439C23.6083 16.7502 22.5204 17.2032 21.3861 17.2032C20.2519 17.2032 19.164 16.7502 18.3615 15.9439C17.5596 15.1376 17.1089 14.044 17.1089 12.9037C17.1089 12.3336 16.8838 11.7867 16.4824 11.3836C16.0814 10.9805 15.5374 10.754 14.9703 10.754C14.4032 10.754 13.8592 10.9805 13.4582 11.3836C13.0568 11.7867 12.8317 12.3336 12.8317 12.9037C12.8526 13.4683 12.763 14.0316 12.5676 14.5613C12.3722 15.091 12.0747 15.5769 11.6923 15.9911C11.3099 16.4053 10.8504 16.7398 10.3394 16.9754C9.82843 17.211 9.27661 17.3432 8.71504 17.3644C7.58029 17.4072 6.47571 16.9952 5.64356 16.2191C5.23144 15.8349 4.89867 15.3728 4.66429 14.8592C4.42992 14.3457 4.29811 13.7907 4.27723 13.2261L7.86989 4.30476H34.9024L38.4951 13.2261C38.4138 14.3096 37.9279 15.3221 37.1343 16.06C36.3407 16.7978 35.2987 17.2062 34.2178 17.2032ZM39.4455 26.2798C36.2961 26.2798 33.7426 28.8463 33.7426 32.0124C33.7426 35.1785 36.2961 37.745 39.4455 37.745C42.595 37.745 45.1485 35.1785 45.1485 32.0124C45.1485 28.8463 42.595 26.2798 39.4455 26.2798Z" fill="#275CB1"/>
</svg>
