<svg width="55" height="55" viewBox="0 0 55 55" fill="none" xmlns="http://www.w3.org/2000/svg">
<path d="M42.4455 33.7129C43.2331 33.7129 43.8713 34.3546 43.8713 35.1461V36.5792H45.297C46.0846 36.5792 46.7228 37.2209 46.7228 38.0124C46.7228 38.8039 46.0846 39.4456 45.297 39.4456H43.8713V40.8787C43.8713 41.6702 43.2331 42.3119 42.4455 42.3119C41.658 42.3119 41.0198 41.6702 41.0198 40.8787V39.4456H39.5941C38.8065 39.4456 38.1683 38.8039 38.1683 38.0124C38.1683 37.2209 38.8065 36.5792 39.5941 36.5792H41.0198V35.1461C41.0198 34.3546 41.658 33.7129 42.4455 33.7129Z" fill="#275CB1"/>
<path fill-rule="evenodd" clip-rule="evenodd" d="M45.7723 18.5167C45.7825 18.3808 45.7825 18.2442 45.7723 18.1083L41.495 7.3596C41.328 6.93471 41.0305 6.57438 40.6462 6.33086C40.2614 6.08733 39.8099 5.97327 39.3564 6.00528H9.41584C8.98747 6.00488 8.56884 6.13375 8.21426 6.37518C8.03651 6.49618 7.87918 6.64267 7.74598 6.8091C7.61371 6.97472 7.50603 7.16004 7.42713 7.3596L3.14991 18.1083C3.13923 18.2442 3.13923 18.3808 3.14991 18.5167C3.09189 18.6136 3.0478 18.7177 3.0181 18.8264C3.01114 18.8519 3.00511 18.8777 3 18.9037C3.02367 20.3897 3.43023 21.8441 4.17976 23.1251C4.92976 24.406 5.99675 25.4699 7.27723 26.2128V46.8503C7.27723 47.4204 7.50232 47.9672 7.90377 48.3703C8.30476 48.7735 8.8487 49 9.41584 49H39.3564C39.9236 49 40.4675 48.7735 40.8685 48.3703C41.27 47.9672 41.495 47.4204 41.495 46.8503V46.5589C41.8069 46.5936 42.1244 46.6113 42.4455 46.6113C47.1702 46.6113 51 42.7615 51 38.0124C51 33.2633 47.1702 29.4135 42.4455 29.4135C42.1244 29.4135 41.8069 29.4312 41.495 29.4659V26.2988C42.7881 25.5485 43.8629 24.4711 44.6134 23.1738C45.3639 21.8764 45.7635 20.4043 45.7723 18.9037C45.7825 18.8372 45.7876 18.77 45.7871 18.7029C45.7871 18.6406 45.782 18.5784 45.7723 18.5167ZM37.2178 31.2054V27.5026C36 27.4957 34.7975 27.2275 33.6911 26.7159C32.5846 26.2043 31.5998 25.4611 30.802 24.536C29.9991 25.451 29.0119 26.1838 27.9059 26.6857C26.7995 27.1877 25.5998 27.4472 24.3861 27.4472C23.1725 27.4472 21.9728 27.1877 20.8663 26.6857C19.7604 26.1838 18.7732 25.451 17.9703 24.536C17.1725 25.4611 16.1877 26.2043 15.0812 26.7159C13.9748 27.2275 12.7723 27.4957 11.5545 27.5026V44.7005H17.9703V33.9519C17.9703 33.3817 18.1954 32.8349 18.5968 32.4317C18.9978 32.0286 19.5418 31.8021 20.1089 31.8021H28.6634C29.2305 31.8021 29.7744 32.0286 30.1754 32.4317C30.5769 32.8349 30.802 33.3817 30.802 33.9519V44.7005H37.0684C35.1303 43.1241 33.8911 40.7137 33.8911 38.0124C33.8911 35.2423 35.1943 32.778 37.2178 31.2054ZM22.2475 44.7005V36.1016H26.5248V44.7005H22.2475ZM37.2178 23.2032C36.0835 23.2032 34.9957 22.7502 34.1932 21.9439C33.3912 21.1376 32.9406 20.044 32.9406 18.9037C32.9406 18.3336 32.7155 17.7867 32.314 17.3836C31.9131 16.9805 31.3691 16.754 30.802 16.754C30.2348 16.754 29.6909 16.9805 29.2899 17.3836C28.8885 17.7867 28.6634 18.3336 28.6634 18.9037C28.6634 20.044 28.2127 21.1376 27.4107 21.9439C26.6083 22.7502 25.5204 23.2032 24.3861 23.2032C23.2519 23.2032 22.164 22.7502 21.3615 21.9439C20.5596 21.1376 20.1089 20.044 20.1089 18.9037C20.1089 18.3336 19.8838 17.7867 19.4824 17.3836C19.0814 16.9805 18.5374 16.754 17.9703 16.754C17.4032 16.754 16.8592 16.9805 16.4582 17.3836C16.0568 17.7867 15.8317 18.3336 15.8317 18.9037C15.8526 19.4683 15.763 20.0316 15.5676 20.5613C15.3722 21.091 15.0747 21.5769 14.6923 21.9911C14.3099 22.4053 13.8504 22.7398 13.3394 22.9754C12.8284 23.211 12.2766 23.3432 11.715 23.3644C10.5803 23.4072 9.47571 22.9952 8.64356 22.2191C8.23144 21.8349 7.89867 21.3728 7.66429 20.8592C7.42992 20.3457 7.29811 19.7907 7.27723 19.2261L10.8699 10.3048H37.9024L41.495 19.2261C41.4138 20.3096 40.9279 21.3221 40.1343 22.06C39.3407 22.7978 38.2987 23.2062 37.2178 23.2032ZM42.4455 32.2798C39.2961 32.2798 36.7426 34.8463 36.7426 38.0124C36.7426 41.1785 39.2961 43.745 42.4455 43.745C45.595 43.745 48.1485 41.1785 48.1485 38.0124C48.1485 34.8463 45.595 32.2798 42.4455 32.2798Z" fill="#275CB1"/>
</svg>
