<svg width="13" height="12" viewBox="0 0 13 12" fill="none" xmlns="http://www.w3.org/2000/svg">
<path d="M5.44308 1.18234C5.86105 0.306435 7.10785 0.306436 7.52581 1.18235L8.37038 2.95228C8.53859 3.30479 8.87371 3.54827 9.26095 3.59932L11.2052 3.85561C12.1674 3.98245 12.5527 5.16822 11.8488 5.8364L10.4265 7.18658C10.1432 7.45548 10.0152 7.84945 10.0864 8.2335L10.4434 10.1618C10.6201 11.1161 9.61145 11.849 8.75846 11.386L7.03485 10.4506C6.69156 10.2642 6.27733 10.2642 5.93404 10.4506L4.21043 11.386C3.35744 11.849 2.34876 11.1161 2.52547 10.1618L2.88254 8.2335C2.95365 7.84945 2.82565 7.45548 2.54237 7.18658L1.12005 5.8364C0.416167 5.16822 0.80145 3.98245 1.76365 3.85561L3.70794 3.59932C4.09518 3.54827 4.4303 3.30479 4.59851 2.95228L5.44308 1.18234Z" fill="#FFAE4F"/>
</svg>
